<mxfile host="app.diagrams.net" agent="Mozilla/5.0 (Windows NT 10.0; Win64; x64; rv:132.0) Gecko/20100101 Firefox/132.0 Trailer/92.3.3128.24" version="24.8.6">
  <diagram id="R2lEEEUBdFMjLlhIrx00" name="Page-1">
    <mxGraphModel dx="1050" dy="604" grid="1" gridSize="10" guides="1" tooltips="1" connect="1" arrows="1" fold="1" page="1" pageScale="1" pageWidth="850" pageHeight="1100" math="0" shadow="0" extFonts="Permanent Marker^https://fonts.googleapis.com/css?family=Permanent+Marker">
      <root>
        <mxCell id="0" />
        <mxCell id="1" parent="0" />
        <mxCell id="W8nqjClu5aDBiHtZzdmf-1" value="&lt;div&gt;Users&lt;/div&gt;" style="rounded=0;whiteSpace=wrap;html=1;" vertex="1" parent="1">
          <mxGeometry x="220" y="190" width="120" height="60" as="geometry" />
        </mxCell>
        <mxCell id="W8nqjClu5aDBiHtZzdmf-3" value="ID" style="ellipse;whiteSpace=wrap;html=1;" vertex="1" parent="1">
          <mxGeometry x="160" y="330" width="120" height="80" as="geometry" />
        </mxCell>
        <mxCell id="W8nqjClu5aDBiHtZzdmf-5" value="&lt;div&gt;username&lt;/div&gt;" style="ellipse;whiteSpace=wrap;html=1;" vertex="1" parent="1">
          <mxGeometry x="50" y="240" width="120" height="80" as="geometry" />
        </mxCell>
        <mxCell id="W8nqjClu5aDBiHtZzdmf-6" value="password" style="ellipse;whiteSpace=wrap;html=1;" vertex="1" parent="1">
          <mxGeometry x="60" y="110" width="120" height="80" as="geometry" />
        </mxCell>
        <mxCell id="W8nqjClu5aDBiHtZzdmf-9" value="Add" style="rhombus;whiteSpace=wrap;html=1;" vertex="1" parent="1">
          <mxGeometry x="370" y="40" width="80" height="80" as="geometry" />
        </mxCell>
        <mxCell id="W8nqjClu5aDBiHtZzdmf-11" value="&lt;div&gt;Computers&lt;/div&gt;" style="rounded=0;whiteSpace=wrap;html=1;" vertex="1" parent="1">
          <mxGeometry x="490" y="190" width="120" height="60" as="geometry" />
        </mxCell>
        <mxCell id="W8nqjClu5aDBiHtZzdmf-12" value="&lt;div&gt;ID&lt;/div&gt;" style="ellipse;whiteSpace=wrap;html=1;" vertex="1" parent="1">
          <mxGeometry x="490" y="320" width="120" height="80" as="geometry" />
        </mxCell>
        <mxCell id="W8nqjClu5aDBiHtZzdmf-13" value="Model" style="ellipse;whiteSpace=wrap;html=1;" vertex="1" parent="1">
          <mxGeometry x="650" y="280" width="120" height="80" as="geometry" />
        </mxCell>
        <mxCell id="W8nqjClu5aDBiHtZzdmf-14" value="Brand" style="ellipse;whiteSpace=wrap;html=1;" vertex="1" parent="1">
          <mxGeometry x="680" y="170" width="120" height="80" as="geometry" />
        </mxCell>
        <mxCell id="W8nqjClu5aDBiHtZzdmf-15" value="&lt;div&gt;Price&lt;/div&gt;" style="ellipse;whiteSpace=wrap;html=1;" vertex="1" parent="1">
          <mxGeometry x="680" y="50" width="120" height="80" as="geometry" />
        </mxCell>
        <mxCell id="W8nqjClu5aDBiHtZzdmf-16" value="Stock" style="ellipse;whiteSpace=wrap;html=1;" vertex="1" parent="1">
          <mxGeometry x="530" y="20" width="120" height="80" as="geometry" />
        </mxCell>
        <mxCell id="W8nqjClu5aDBiHtZzdmf-27" value="" style="endArrow=none;html=1;rounded=0;exitX=0;exitY=0;exitDx=0;exitDy=0;" edge="1" parent="1" source="W8nqjClu5aDBiHtZzdmf-1" target="W8nqjClu5aDBiHtZzdmf-6">
          <mxGeometry width="50" height="50" relative="1" as="geometry">
            <mxPoint x="400" y="220" as="sourcePoint" />
            <mxPoint x="450" y="170" as="targetPoint" />
          </mxGeometry>
        </mxCell>
        <mxCell id="W8nqjClu5aDBiHtZzdmf-28" value="" style="endArrow=none;html=1;rounded=0;" edge="1" parent="1" source="W8nqjClu5aDBiHtZzdmf-5" target="W8nqjClu5aDBiHtZzdmf-1">
          <mxGeometry width="50" height="50" relative="1" as="geometry">
            <mxPoint x="400" y="220" as="sourcePoint" />
            <mxPoint x="450" y="170" as="targetPoint" />
          </mxGeometry>
        </mxCell>
        <mxCell id="W8nqjClu5aDBiHtZzdmf-29" value="" style="endArrow=none;html=1;rounded=0;" edge="1" parent="1" source="W8nqjClu5aDBiHtZzdmf-1" target="W8nqjClu5aDBiHtZzdmf-3">
          <mxGeometry width="50" height="50" relative="1" as="geometry">
            <mxPoint x="400" y="220" as="sourcePoint" />
            <mxPoint x="450" y="170" as="targetPoint" />
          </mxGeometry>
        </mxCell>
        <mxCell id="W8nqjClu5aDBiHtZzdmf-30" value="" style="endArrow=none;html=1;rounded=0;" edge="1" parent="1" source="W8nqjClu5aDBiHtZzdmf-16" target="W8nqjClu5aDBiHtZzdmf-11">
          <mxGeometry width="50" height="50" relative="1" as="geometry">
            <mxPoint x="400" y="220" as="sourcePoint" />
            <mxPoint x="450" y="170" as="targetPoint" />
          </mxGeometry>
        </mxCell>
        <mxCell id="W8nqjClu5aDBiHtZzdmf-31" value="" style="endArrow=none;html=1;rounded=0;" edge="1" parent="1" source="W8nqjClu5aDBiHtZzdmf-11" target="W8nqjClu5aDBiHtZzdmf-15">
          <mxGeometry width="50" height="50" relative="1" as="geometry">
            <mxPoint x="400" y="220" as="sourcePoint" />
            <mxPoint x="450" y="170" as="targetPoint" />
          </mxGeometry>
        </mxCell>
        <mxCell id="W8nqjClu5aDBiHtZzdmf-32" value="" style="endArrow=none;html=1;rounded=0;" edge="1" parent="1" source="W8nqjClu5aDBiHtZzdmf-14" target="W8nqjClu5aDBiHtZzdmf-11">
          <mxGeometry width="50" height="50" relative="1" as="geometry">
            <mxPoint x="400" y="220" as="sourcePoint" />
            <mxPoint x="450" y="170" as="targetPoint" />
          </mxGeometry>
        </mxCell>
        <mxCell id="W8nqjClu5aDBiHtZzdmf-33" value="" style="endArrow=none;html=1;rounded=0;" edge="1" parent="1" source="W8nqjClu5aDBiHtZzdmf-13" target="W8nqjClu5aDBiHtZzdmf-11">
          <mxGeometry width="50" height="50" relative="1" as="geometry">
            <mxPoint x="400" y="220" as="sourcePoint" />
            <mxPoint x="450" y="170" as="targetPoint" />
          </mxGeometry>
        </mxCell>
        <mxCell id="W8nqjClu5aDBiHtZzdmf-34" value="" style="endArrow=none;html=1;rounded=0;" edge="1" parent="1" source="W8nqjClu5aDBiHtZzdmf-12" target="W8nqjClu5aDBiHtZzdmf-11">
          <mxGeometry width="50" height="50" relative="1" as="geometry">
            <mxPoint x="400" y="220" as="sourcePoint" />
            <mxPoint x="450" y="170" as="targetPoint" />
          </mxGeometry>
        </mxCell>
        <mxCell id="W8nqjClu5aDBiHtZzdmf-35" value="Edit" style="rhombus;whiteSpace=wrap;html=1;" vertex="1" parent="1">
          <mxGeometry x="370" y="140" width="80" height="80" as="geometry" />
        </mxCell>
        <mxCell id="W8nqjClu5aDBiHtZzdmf-36" value="View" style="rhombus;whiteSpace=wrap;html=1;" vertex="1" parent="1">
          <mxGeometry x="370" y="240" width="80" height="80" as="geometry" />
        </mxCell>
        <mxCell id="W8nqjClu5aDBiHtZzdmf-37" value="Delete" style="rhombus;whiteSpace=wrap;html=1;" vertex="1" parent="1">
          <mxGeometry x="370" y="340" width="80" height="80" as="geometry" />
        </mxCell>
        <mxCell id="W8nqjClu5aDBiHtZzdmf-38" value="" style="endArrow=none;html=1;rounded=0;" edge="1" parent="1" source="W8nqjClu5aDBiHtZzdmf-1" target="W8nqjClu5aDBiHtZzdmf-9">
          <mxGeometry width="50" height="50" relative="1" as="geometry">
            <mxPoint x="400" y="220" as="sourcePoint" />
            <mxPoint x="450" y="170" as="targetPoint" />
          </mxGeometry>
        </mxCell>
        <mxCell id="W8nqjClu5aDBiHtZzdmf-39" value="" style="endArrow=none;html=1;rounded=0;" edge="1" parent="1" source="W8nqjClu5aDBiHtZzdmf-1" target="W8nqjClu5aDBiHtZzdmf-35">
          <mxGeometry width="50" height="50" relative="1" as="geometry">
            <mxPoint x="400" y="220" as="sourcePoint" />
            <mxPoint x="410" y="180" as="targetPoint" />
          </mxGeometry>
        </mxCell>
        <mxCell id="W8nqjClu5aDBiHtZzdmf-40" value="" style="endArrow=none;html=1;rounded=0;" edge="1" parent="1" source="W8nqjClu5aDBiHtZzdmf-1" target="W8nqjClu5aDBiHtZzdmf-36">
          <mxGeometry width="50" height="50" relative="1" as="geometry">
            <mxPoint x="400" y="220" as="sourcePoint" />
            <mxPoint x="450" y="170" as="targetPoint" />
          </mxGeometry>
        </mxCell>
        <mxCell id="W8nqjClu5aDBiHtZzdmf-41" value="" style="endArrow=none;html=1;rounded=0;" edge="1" parent="1" source="W8nqjClu5aDBiHtZzdmf-1" target="W8nqjClu5aDBiHtZzdmf-37">
          <mxGeometry width="50" height="50" relative="1" as="geometry">
            <mxPoint x="400" y="220" as="sourcePoint" />
            <mxPoint x="450" y="170" as="targetPoint" />
          </mxGeometry>
        </mxCell>
        <mxCell id="W8nqjClu5aDBiHtZzdmf-42" value="" style="endArrow=none;html=1;rounded=0;" edge="1" parent="1" source="W8nqjClu5aDBiHtZzdmf-9" target="W8nqjClu5aDBiHtZzdmf-11">
          <mxGeometry width="50" height="50" relative="1" as="geometry">
            <mxPoint x="400" y="220" as="sourcePoint" />
            <mxPoint x="450" y="170" as="targetPoint" />
          </mxGeometry>
        </mxCell>
        <mxCell id="W8nqjClu5aDBiHtZzdmf-43" value="" style="endArrow=none;html=1;rounded=0;" edge="1" parent="1" source="W8nqjClu5aDBiHtZzdmf-35" target="W8nqjClu5aDBiHtZzdmf-11">
          <mxGeometry width="50" height="50" relative="1" as="geometry">
            <mxPoint x="400" y="220" as="sourcePoint" />
            <mxPoint x="450" y="170" as="targetPoint" />
          </mxGeometry>
        </mxCell>
        <mxCell id="W8nqjClu5aDBiHtZzdmf-44" value="" style="endArrow=none;html=1;rounded=0;" edge="1" parent="1" source="W8nqjClu5aDBiHtZzdmf-36" target="W8nqjClu5aDBiHtZzdmf-11">
          <mxGeometry width="50" height="50" relative="1" as="geometry">
            <mxPoint x="400" y="220" as="sourcePoint" />
            <mxPoint x="450" y="170" as="targetPoint" />
          </mxGeometry>
        </mxCell>
        <mxCell id="W8nqjClu5aDBiHtZzdmf-45" value="" style="endArrow=none;html=1;rounded=0;" edge="1" parent="1" source="W8nqjClu5aDBiHtZzdmf-37" target="W8nqjClu5aDBiHtZzdmf-11">
          <mxGeometry width="50" height="50" relative="1" as="geometry">
            <mxPoint x="400" y="220" as="sourcePoint" />
            <mxPoint x="450" y="170" as="targetPoint" />
          </mxGeometry>
        </mxCell>
      </root>
    </mxGraphModel>
  </diagram>
</mxfile>
